<svg xmlns="http://www.w3.org/2000/svg" viewBox="0 0 100 100"><g fill="#e06e10"><ellipse cx="70.45" cy="56.64" rx="6.6" ry="14" transform="rotate(108.0 70.45 56.64)"/><ellipse cx="62.64" cy="67.39" rx="6.6" ry="14" transform="rotate(144.0 62.64 67.39)"/><ellipse cx="50.00" cy="71.50" rx="6.6" ry="14" transform="rotate(180.0 50.00 71.50)"/><ellipse cx="37.36" cy="67.39" rx="6.6" ry="14" transform="rotate(216.0 37.36 67.39)"/><ellipse cx="29.55" cy="56.64" rx="6.6" ry="14" transform="rotate(252.0 29.55 56.64)"/><ellipse cx="29.55" cy="43.36" rx="6.6" ry="14" transform="rotate(288.0 29.55 43.36)"/><ellipse cx="37.36" cy="32.61" rx="6.6" ry="14" transform="rotate(324.0 37.36 32.61)"/><ellipse cx="50.00" cy="28.50" rx="6.6" ry="14" transform="rotate(360.0 50.00 28.50)"/><ellipse cx="62.64" cy="32.61" rx="6.6" ry="14" transform="rotate(396.0 62.64 32.61)"/><ellipse cx="70.45" cy="43.36" rx="6.6" ry="14" transform="rotate(432.0 70.45 43.36)"/></g><g fill="#f5871c"><ellipse cx="72.00" cy="50.00" rx="8" ry="15" transform="rotate(90.0 72.00 50.00)"/><ellipse cx="67.80" cy="62.93" rx="8" ry="15" transform="rotate(126.0 67.80 62.93)"/><ellipse cx="56.80" cy="70.92" rx="8" ry="15" transform="rotate(162.0 56.80 70.92)"/><ellipse cx="43.20" cy="70.92" rx="8" ry="15" transform="rotate(198.0 43.20 70.92)"/><ellipse cx="32.20" cy="62.93" rx="8" ry="15" transform="rotate(234.0 32.20 62.93)"/><ellipse cx="28.00" cy="50.00" rx="8" ry="15" transform="rotate(270.0 28.00 50.00)"/><ellipse cx="32.20" cy="37.07" rx="8" ry="15" transform="rotate(306.0 32.20 37.07)"/><ellipse cx="43.20" cy="29.08" rx="8" ry="15" transform="rotate(342.0 43.20 29.08)"/><ellipse cx="56.80" cy="29.08" rx="8" ry="15" transform="rotate(378.0 56.80 29.08)"/><ellipse cx="67.80" cy="37.07" rx="8" ry="15" transform="rotate(414.0 67.80 37.07)"/></g><circle cx="50" cy="50" r="11.5" fill="#cf5f0c"/><circle cx="50" cy="50" r="7.6" fill="#b5510a"/><g fill="#7d3804"><circle cx="50" cy="50" r="1.7"/><circle cx="53.70" cy="50.00" r="1.53"/><circle cx="51.85" cy="53.20" r="1.53"/><circle cx="48.15" cy="53.20" r="1.53"/><circle cx="46.30" cy="50.00" r="1.53"/><circle cx="48.15" cy="46.80" r="1.53"/><circle cx="51.85" cy="46.80" r="1.53"/></g></svg>